<?xml version="1.0" encoding="UTF-8" ?>
<!DOCTYPE svg PUBLIC "-//W3C//DTD SVG 1.1//EN" "http://www.w3.org/Graphics/SVG/1.1/DTD/svg11.dtd">
<svg width="130pt" height="243pt" viewBox="0 0 130 243" version="1.1" xmlns="http://www.w3.org/2000/svg">
<path fill="#ffffff" d=" M 0.00 0.00 L 130.00 0.00 L 130.00 243.00 L 0.00 243.00 L 0.00 230.72 L 0.38 232.48 C 1.12 237.72 5.70 242.17 11.02 242.52 C 15.31 242.96 19.63 242.80 23.94 242.88 C 54.61 242.74 85.27 242.90 115.94 242.85 C 120.37 243.02 124.98 241.28 127.51 237.50 C 129.82 234.52 129.76 230.58 129.81 227.00 C 129.73 181.68 129.65 136.36 129.64 91.04 C 129.71 86.98 129.33 82.81 127.41 79.17 C 125.92 75.80 122.87 73.57 120.94 70.52 C 123.91 62.30 123.12 53.07 121.23 44.67 C 117.14 28.59 106.20 14.17 91.33 6.62 C 77.40 -0.69 60.40 -1.84 45.64 3.64 C 32.29 8.38 20.96 18.35 14.43 30.90 C 14.14 31.39 13.89 31.89 13.63 32.38 C 12.24 35.01 11.16 37.77 10.23 40.59 C 7.35 50.12 6.18 60.89 9.57 70.41 C 4.59 74.90 0.62 80.74 0.00 87.58 L 0.00 0.00 Z" />
<path fill="#b5b5b5" d=" M 45.64 3.64 C 60.40 -1.84 77.40 -0.69 91.33 6.62 C 106.20 14.17 117.14 28.59 121.23 44.67 C 123.12 53.07 123.91 62.30 120.94 70.52 C 120.62 70.92 119.99 71.70 119.67 72.09 C 119.57 68.02 120.45 64.02 120.59 59.97 C 120.66 47.40 117.05 34.66 109.50 24.52 C 99.46 10.50 82.36 1.60 65.07 1.86 C 47.62 1.20 30.28 9.99 19.98 23.98 C 18.18 26.32 16.97 29.24 14.43 30.90 C 20.96 18.35 32.29 8.38 45.64 3.64 Z" />
<path fill="#d9d9d9" d=" M 19.98 23.98 C 30.28 9.99 47.62 1.20 65.07 1.86 C 82.36 1.60 99.46 10.50 109.50 24.52 C 117.05 34.66 120.66 47.40 120.59 59.97 C 120.45 64.02 119.57 68.02 119.67 72.09 C 114.65 91.81 97.87 107.83 78.12 112.42 C 71.13 113.16 64.09 112.82 57.07 112.84 C 50.45 113.01 44.14 110.51 38.34 107.55 C 24.95 100.57 14.53 88.12 10.58 73.49 C 10.27 72.45 9.93 71.43 9.57 70.41 C 6.18 60.89 7.35 50.12 10.23 40.59 C 13.56 39.88 13.42 35.14 13.63 32.38 C 13.89 31.89 14.14 31.39 14.43 30.90 C 16.97 29.24 18.18 26.32 19.98 23.98 Z" />
<path fill="#c3c3c3" d=" M 56.20 22.20 C 63.69 20.27 71.83 21.09 78.91 24.10 C 79.63 24.53 80.36 24.96 81.07 25.41 C 72.09 27.39 62.93 24.64 53.91 26.58 C 55.22 25.70 56.52 24.81 57.82 23.92 C 54.66 24.52 51.55 25.38 48.61 26.69 C 47.28 27.24 45.92 27.73 44.55 28.18 C 47.42 24.67 51.96 23.25 56.20 22.20 Z" />
<path fill="#d3d3d3" d=" M 81.46 21.26 C 82.63 24.49 84.66 27.22 87.77 28.79 C 85.48 28.83 83.25 28.25 81.07 27.57 C 80.90 27.76 80.55 28.13 80.38 28.31 C 81.60 29.48 82.82 30.66 84.03 31.85 C 80.97 30.09 77.55 30.55 74.46 31.96 C 74.78 32.64 75.10 33.32 75.43 34.00 C 73.80 34.55 72.18 35.10 70.56 35.65 C 69.99 37.74 71.34 39.36 72.63 40.82 C 71.87 41.07 71.12 41.33 70.36 41.61 C 69.68 40.88 68.99 40.16 68.30 39.44 C 67.99 40.02 67.69 40.60 67.38 41.17 C 68.58 42.49 69.78 43.80 70.98 45.11 C 69.82 46.14 68.67 47.18 67.51 48.20 C 67.82 48.93 68.12 49.67 68.43 50.40 C 67.05 50.70 65.83 51.42 64.71 52.27 C 63.60 51.78 62.49 51.29 61.38 50.80 C 61.74 51.50 62.10 52.20 62.47 52.90 C 61.79 55.17 61.45 57.76 59.48 59.34 C 58.08 61.22 55.65 61.13 53.65 61.86 C 51.85 63.26 50.32 65.02 48.23 66.01 C 47.38 65.18 46.52 64.35 45.67 63.52 C 44.64 64.03 43.60 64.53 42.58 65.05 C 42.32 63.89 42.18 62.71 41.89 61.57 C 42.88 61.59 43.86 61.61 44.85 61.64 C 43.50 60.18 41.65 58.98 40.98 57.04 C 40.71 54.93 40.40 52.55 41.68 50.68 C 43.27 48.36 41.55 45.38 42.88 42.94 C 44.11 40.21 44.70 37.27 44.36 34.28 C 45.93 32.86 47.53 31.48 49.15 30.13 C 49.00 28.97 48.77 27.84 48.61 26.69 C 51.55 25.38 54.66 24.52 57.82 23.92 C 56.52 24.81 55.22 25.70 53.91 26.58 C 62.93 24.64 72.09 27.39 81.07 25.41 C 80.36 24.96 79.63 24.53 78.91 24.10 C 79.76 23.15 80.61 22.20 81.46 21.26 Z" />
<path fill="#ffffff" d=" M 30.61 45.78 C 32.92 39.95 35.93 33.03 42.43 31.01 C 42.65 32.95 43.38 35.16 41.83 36.77 C 37.12 42.71 34.43 50.26 34.58 57.85 C 35.20 65.15 37.83 72.60 43.34 77.65 C 49.27 84.10 58.38 87.11 67.01 86.38 C 73.55 85.15 80.04 82.50 84.95 77.91 C 88.18 74.16 90.93 69.83 92.24 65.02 C 93.37 61.10 95.21 57.13 94.36 52.96 C 93.58 48.75 92.79 44.35 90.27 40.78 C 88.81 38.63 87.43 36.42 86.39 34.04 C 87.23 33.07 88.07 32.11 88.90 31.14 C 95.16 34.99 98.41 42.19 100.11 49.07 C 104.83 66.52 93.39 86.23 76.13 91.33 C 60.96 96.74 42.99 89.91 34.47 76.42 C 28.77 67.45 26.67 55.86 30.61 45.78 Z" />
<path fill="#c9c9c9" d=" M 13.63 32.38 C 13.42 35.14 13.56 39.88 10.23 40.59 C 11.16 37.77 12.24 35.01 13.63 32.38 Z" />
<path fill="#4f4f4f" d=" M 9.57 70.41 C 9.93 71.43 10.27 72.45 10.58 73.49 C 5.92 79.32 1.12 86.15 1.63 93.99 C 1.73 134.99 1.29 175.99 1.15 216.98 C 1.11 222.16 1.58 227.39 0.38 232.48 L 0.00 230.72 L 0.00 87.58 C 0.62 80.74 4.59 74.90 9.57 70.41 Z" />
<path fill="#1e1e1e" d=" M 119.67 72.09 C 119.99 71.70 120.62 70.92 120.94 70.52 C 122.87 73.57 125.92 75.80 127.41 79.17 C 125.71 83.98 127.04 89.07 126.68 94.02 C 126.39 99.03 125.62 104.34 122.53 108.47 C 118.41 114.35 112.54 118.67 106.65 122.62 C 91.38 130.99 72.34 130.31 56.69 123.30 C 52.66 121.36 48.59 119.47 44.63 117.39 C 40.62 115.42 38.39 111.39 35.54 108.15 C 36.24 108.00 37.64 107.70 38.34 107.55 C 44.14 110.51 50.45 113.01 57.07 112.84 C 64.09 112.82 71.13 113.16 78.12 112.42 C 97.87 107.83 114.65 91.81 119.67 72.09 Z" />
<path fill="#2f2f2f" d=" M 1.63 93.99 C 1.12 86.15 5.92 79.32 10.58 73.49 C 14.53 88.12 24.95 100.57 38.34 107.55 C 37.64 107.70 36.24 108.00 35.54 108.15 C 38.39 111.39 40.62 115.42 44.63 117.39 C 48.59 119.47 52.66 121.36 56.69 123.30 C 72.34 130.31 91.38 130.99 106.65 122.62 C 112.54 118.67 118.41 114.35 122.53 108.47 C 125.62 104.34 126.39 99.03 126.68 94.02 C 127.04 89.07 125.71 83.98 127.41 79.17 C 129.33 82.81 129.71 86.98 129.64 91.04 C 129.65 136.36 129.73 181.68 129.81 227.00 C 129.76 230.58 129.82 234.52 127.51 237.50 C 124.98 241.28 120.37 243.02 115.94 242.85 C 85.27 242.90 54.61 242.74 23.94 242.88 C 19.63 242.80 15.31 242.96 11.02 242.52 C 5.70 242.17 1.12 237.72 0.38 232.48 C 1.58 227.39 1.11 222.16 1.15 216.98 C 1.29 175.99 1.73 134.99 1.63 93.99 Z" />
<path fill="#6b6b6b" d=" M 79.29 215.34 C 80.24 214.02 82.48 215.59 81.39 216.89 C 80.46 218.24 78.15 216.64 79.29 215.34 Z" />
<path fill="#747474" d=" M 48.18 220.72 C 50.05 222.37 51.86 224.10 53.63 225.87 C 53.67 224.23 53.75 222.59 53.79 220.95 L 55.41 220.96 C 55.57 224.01 55.61 227.06 55.48 230.11 C 53.66 228.52 51.89 226.87 50.25 225.10 C 49.88 226.82 51.08 230.47 48.19 229.86 C 48.11 226.81 48.09 223.76 48.18 220.72 Z" />
<path fill="#6e6e6e" d=" M 59.10 221.05 C 59.56 221.06 60.48 221.10 60.94 221.12 C 61.45 223.27 59.66 227.70 62.87 227.95 C 65.03 226.53 63.63 223.29 64.06 221.11 C 64.54 221.09 65.49 221.05 65.96 221.03 C 65.76 223.78 67.22 227.65 64.33 229.40 C 62.61 230.63 60.09 229.64 59.23 227.83 C 58.83 225.59 59.06 223.30 59.10 221.05 Z" />
<path fill="#6c6c6c" d=" M 69.69 220.76 C 71.32 221.08 72.01 222.26 71.77 224.31 C 73.11 222.75 74.23 220.56 76.64 220.83 C 75.66 222.33 74.62 223.80 73.57 225.26 C 74.67 226.69 75.76 228.13 76.83 229.59 C 74.25 230.76 73.17 227.60 71.70 226.18 C 71.40 227.69 72.11 230.10 69.82 230.22 C 69.48 227.07 69.51 223.91 69.69 220.76 Z" />
<path fill="#7e7e7e" d=" M 79.60 220.74 L 81.17 221.12 C 81.45 223.94 81.29 226.78 81.28 229.62 L 79.54 229.63 C 79.46 226.67 79.47 223.70 79.60 220.74 Z" />
</svg>
