<?xml version="1.0" encoding="UTF-8" ?>
<!DOCTYPE svg PUBLIC "-//W3C//DTD SVG 1.1//EN" "http://www.w3.org/Graphics/SVG/1.1/DTD/svg11.dtd">
<svg width="510pt" height="228pt" viewBox="0 0 510 228" version="1.1" xmlns="http://www.w3.org/2000/svg">
<path fill="#ffffff" d=" M 0.00 0.00 L 510.00 0.00 L 510.00 228.00 L 0.00 228.00 L 0.00 222.02 C 1.07 223.29 1.94 225.37 3.93 225.21 C 11.30 225.30 18.68 225.27 26.05 225.23 C 28.43 225.53 30.30 223.35 29.96 221.05 C 30.09 198.29 29.90 175.52 30.05 152.76 C 47.06 169.48 63.58 186.68 80.56 203.43 C 88.04 210.94 95.59 218.38 102.99 225.96 C 105.98 228.30 112.98 228.01 112.49 222.90 C 112.53 181.91 112.48 140.91 112.51 99.91 C 112.69 97.81 111.62 95.02 109.12 95.08 C 101.72 94.89 94.31 95.01 86.91 95.02 C 84.61 94.68 82.48 96.62 82.78 98.97 C 82.73 120.69 82.71 142.41 82.80 164.14 C 57.84 140.82 33.53 116.78 8.78 93.22 C 5.72 93.27 2.16 92.56 0.00 95.32 L 0.00 0.00 Z" />
<path fill="#fecb3f" d=" M 482.43 1.60 C 485.47 0.45 488.82 1.20 491.99 0.89 C 497.77 0.26 503.16 3.99 506.31 8.59 C 509.66 13.38 509.63 19.55 508.91 25.11 C 505.95 36.00 492.69 41.89 482.47 37.36 C 475.81 34.39 471.07 27.33 471.23 19.99 C 470.86 12.34 475.46 4.79 482.43 1.60 Z" />
<path fill="#000000" d=" M 0.00 95.32 C 2.16 92.56 5.72 93.27 8.78 93.22 C 33.53 116.78 57.84 140.82 82.80 164.14 C 82.71 142.41 82.73 120.69 82.78 98.97 C 82.48 96.62 84.61 94.68 86.91 95.02 C 94.31 95.01 101.72 94.89 109.12 95.08 C 111.62 95.02 112.69 97.81 112.51 99.91 C 112.48 140.91 112.53 181.91 112.49 222.90 C 112.98 228.01 105.98 228.30 102.99 225.96 C 95.59 218.38 88.04 210.94 80.56 203.43 C 63.58 186.68 47.06 169.48 30.05 152.76 C 29.90 175.52 30.09 198.29 29.96 221.05 C 30.30 223.35 28.43 225.53 26.05 225.23 C 18.68 225.27 11.30 225.30 3.93 225.21 C 1.94 225.37 1.07 223.29 0.00 222.02 L 0.00 95.32 Z" />
<path fill="#000000" d=" M 168.97 95.08 C 176.67 94.89 184.38 95.04 192.09 95.00 C 194.41 94.58 196.54 96.71 196.24 99.04 C 196.27 124.04 196.25 149.04 196.24 174.03 C 196.10 182.20 200.60 190.29 207.75 194.28 C 214.16 197.99 222.35 198.13 229.00 194.97 C 236.64 191.44 241.76 183.39 241.99 175.01 C 242.03 149.68 241.97 124.34 242.01 99.01 C 241.71 96.79 243.72 94.66 245.97 95.01 C 253.32 94.99 260.67 94.99 268.01 95.01 C 270.32 94.66 272.55 96.71 272.24 99.07 C 272.27 124.71 272.25 150.36 272.25 176.00 C 272.10 190.11 265.69 203.91 255.21 213.32 C 242.84 224.59 225.00 229.60 208.59 226.22 C 189.89 222.74 173.63 208.40 168.20 190.12 C 166.35 184.29 165.86 178.12 165.99 172.03 C 166.03 147.64 165.96 123.25 166.02 98.86 C 165.80 97.07 167.24 95.37 168.97 95.08 Z" />
<path fill="#000000" d=" M 326.24 99.95 C 325.86 97.27 328.27 94.63 331.01 95.01 C 338.01 94.98 345.02 95.00 352.03 95.00 C 354.35 94.61 356.91 96.55 356.97 98.92 C 357.14 115.30 356.77 131.70 357.15 148.08 C 370.38 131.31 383.88 114.76 397.15 98.03 C 398.31 96.51 399.86 94.89 401.96 95.03 C 409.66 94.97 417.36 94.98 425.05 95.02 C 427.36 94.77 429.51 96.79 429.52 99.09 C 429.79 101.61 427.52 103.33 426.21 105.21 C 412.63 122.29 398.87 139.24 385.40 156.41 C 400.84 176.98 416.75 197.22 432.31 217.70 C 434.78 220.34 432.69 225.30 429.00 225.18 C 421.34 225.38 413.67 225.17 406.00 225.27 C 403.60 225.22 400.55 225.39 399.17 222.99 C 385.16 203.96 371.18 184.91 357.16 165.89 C 356.77 184.29 357.15 202.71 356.97 221.11 C 357.18 223.32 355.07 225.26 352.95 225.24 C 345.65 225.28 338.35 225.25 331.05 225.25 C 328.56 225.65 326.19 223.49 326.27 221.00 C 326.22 180.65 326.26 140.30 326.24 99.95 Z" />
<path fill="#000000" d=" M 477.34 95.51 C 478.69 94.68 480.42 95.12 481.94 94.98 C 488.31 95.05 494.69 94.95 501.06 95.01 C 503.36 94.66 505.53 96.74 505.24 99.07 C 505.26 139.70 505.26 180.33 505.24 220.96 C 505.51 222.88 504.20 225.19 502.09 225.19 C 494.39 225.32 486.67 225.25 478.97 225.23 C 476.70 225.40 475.39 222.96 475.50 220.97 C 475.49 180.65 475.50 140.33 475.49 100.01 C 475.44 98.36 475.77 96.42 477.34 95.51 Z" />
</svg>
