<?xml version="1.0" encoding="UTF-8" ?>
<!DOCTYPE svg PUBLIC "-//W3C//DTD SVG 1.1//EN" "http://www.w3.org/Graphics/SVG/1.1/DTD/svg11.dtd">
<svg version="1.1" xmlns="http://www.w3.org/2000/svg" xmlns:xlink="http://www.w3.org/1999/xlink" x="0px" y="0px" viewBox="0 0 1000 1000" enable-background="new 0 0 1000 1000" xml:space="preserve">
<g><path d="M826.7,990H173.3c-40.8,0-81.7-32.7-81.7-81.7V500c0-49,40.8-81.7,81.7-81.7h653.3c49,0,81.7,32.7,81.7,81.7v408.3C908.3,957.3,875.7,990,826.7,990z"/><path d="M295.8,377.5V263.2c0-98,73.5-171.5,171.5-171.5h73.5c89.8,0,171.5,73.5,171.5,171.5v114.3H794V263.2C794,124.3,679.7,10,540.8,10h-73.5c-138.8,0-253.2,114.3-253.2,253.2v114.3H295.8z"/></g>
</svg>